<svg id="svg" version="1.1" xmlns="http://www.w3.org/2000/svg" xmlns:xlink="http://www.w3.org/1999/xlink" width="400" height="235.43543543543544" viewBox="0, 0, 400,235.43543543543544"><g id="svgg"><path id="path1" d="M239.105 22.355 C 238.606 22.494,238.579 22.543,238.928 22.677 C 239.155 22.764,239.340 23.012,239.340 23.228 C 239.340 23.567,240.898 26.316,244.263 31.920 L 245.112 33.333 245.064 44.047 C 245.024 52.924,244.959 54.802,244.686 55.002 C 244.484 55.150,241.799 55.268,237.791 55.307 C 234.180 55.341,231.147 55.449,231.049 55.547 C 230.923 55.673,230.763 74.724,230.853 78.857 C 230.861 79.185,231.567 79.273,231.567 78.947 C 231.567 78.834,232.113 77.906,232.782 76.885 C 233.450 75.865,234.523 74.022,235.167 72.792 C 235.811 71.561,236.563 70.242,236.838 69.861 C 237.113 69.481,237.661 68.583,238.055 67.867 C 238.901 66.331,239.101 66.251,242.197 66.219 C 243.951 66.201,244.532 66.276,244.760 66.550 C 244.993 66.832,245.060 81.249,245.086 136.577 L 245.118 206.249 245.645 206.989 C 245.935 207.396,246.172 207.807,246.172 207.904 C 246.172 208.000,246.568 208.672,247.052 209.398 C 247.536 210.124,248.092 211.007,248.289 211.360 C 249.495 213.530,250.442 215.044,250.757 215.305 C 250.956 215.470,251.119 215.748,251.119 215.922 C 251.119 216.243,251.820 216.726,252.286 216.726 C 252.427 216.726,252.671 216.434,252.829 216.078 C 252.987 215.721,253.236 215.324,253.384 215.194 C 253.531 215.065,253.985 214.338,254.393 213.580 C 254.801 212.822,255.450 211.743,255.836 211.182 C 256.221 210.621,256.537 210.096,256.537 210.015 C 256.537 209.934,256.956 209.173,257.469 208.323 C 258.773 206.161,258.680 211.505,258.730 135.739 C 258.770 74.615,258.816 66.624,259.128 66.426 C 259.323 66.303,260.669 66.201,262.120 66.199 L 264.758 66.196 265.325 66.961 C 265.637 67.382,266.252 68.416,266.691 69.258 C 267.131 70.100,267.576 70.851,267.679 70.928 C 267.782 71.004,268.047 71.396,268.268 71.799 C 268.976 73.092,269.884 74.763,270.502 75.910 C 270.832 76.524,271.328 77.319,271.604 77.677 C 271.879 78.035,272.309 78.592,272.558 78.916 L 273.011 79.505 273.051 78.210 C 273.292 70.312,273.135 56.025,272.804 55.734 C 272.520 55.484,270.970 55.389,265.870 55.310 C 259.908 55.217,259.273 55.169,258.994 54.788 C 258.751 54.455,258.696 52.182,258.731 43.850 L 258.775 33.333 259.364 32.345 C 259.688 31.802,260.409 30.559,260.967 29.583 C 261.525 28.607,262.082 27.747,262.204 27.671 C 262.326 27.596,262.426 27.345,262.426 27.113 C 262.426 26.882,262.624 26.513,262.867 26.294 C 263.641 25.593,264.898 22.597,264.518 22.357 C 264.137 22.115,239.972 22.113,239.105 22.355 M126.714 83.631 C 126.119 83.732,125.303 83.984,124.900 84.192 C 124.498 84.400,124.029 84.570,123.858 84.570 C 123.687 84.570,122.968 84.951,122.262 85.416 C 121.556 85.881,120.710 86.400,120.383 86.570 C 120.056 86.739,119.205 87.485,118.492 88.227 C 117.780 88.968,116.948 89.801,116.644 90.076 C 115.816 90.827,113.970 93.249,113.210 94.582 C 112.840 95.230,112.409 95.919,112.253 96.113 C 112.024 96.397,110.022 100.620,109.070 102.827 C 108.896 103.231,107.665 106.932,106.956 109.187 C 105.048 115.250,103.665 134.071,104.805 138.460 C 104.931 138.944,105.157 140.135,105.308 141.107 C 105.770 144.087,106.236 146.581,106.585 147.939 C 107.415 151.167,108.229 153.863,108.405 153.972 C 108.512 154.038,108.602 154.271,108.606 154.490 C 108.611 154.709,108.819 155.312,109.069 155.830 C 109.320 156.349,109.528 156.870,109.533 156.990 C 109.576 158.164,114.121 165.902,115.908 167.845 C 116.504 168.492,117.091 169.192,117.212 169.399 C 117.929 170.626,122.220 173.550,124.499 174.365 C 128.454 175.781,133.977 175.785,135.757 174.375 C 135.914 174.250,136.466 174.016,136.985 173.853 C 137.503 173.691,138.139 173.372,138.398 173.145 C 138.657 172.917,139.158 172.584,139.511 172.404 C 140.567 171.867,144.006 168.586,145.065 167.105 C 147.309 163.969,147.756 163.234,149.205 160.306 C 155.470 147.647,157.408 131.591,154.635 115.312 C 152.843 104.798,148.004 94.042,142.956 89.357 C 142.652 89.074,142.272 88.703,142.111 88.532 C 141.951 88.361,141.633 88.047,141.405 87.833 C 140.926 87.386,137.123 84.806,136.941 84.806 C 136.875 84.806,136.486 84.650,136.078 84.459 C 133.977 83.479,129.797 83.109,126.714 83.631 M52.297 85.748 C 47.179 85.813,42.868 85.946,42.717 86.044 C 42.445 86.220,43.173 87.877,44.295 89.635 C 45.377 91.331,46.541 93.369,47.848 95.849 L 48.763 97.588 48.704 129.654 L 48.645 161.720 47.409 163.765 C 46.728 164.891,46.172 165.885,46.172 165.975 C 46.172 166.065,45.801 166.656,45.347 167.287 C 44.894 167.918,44.523 168.503,44.523 168.586 C 44.523 168.670,44.143 169.310,43.679 170.009 C 42.710 171.470,42.281 172.689,42.656 172.920 C 42.998 173.131,57.275 173.206,59.938 173.010 C 62.862 172.795,63.230 172.518,62.232 171.277 C 61.821 170.765,61.484 170.252,61.484 170.137 C 61.484 170.022,60.922 169.089,60.236 168.062 C 59.550 167.035,58.795 165.771,58.559 165.253 C 58.322 164.735,57.744 163.728,57.274 163.015 L 56.419 161.720 56.348 137.927 C 56.309 124.841,56.343 113.682,56.422 113.129 C 56.592 111.949,56.888 111.999,57.119 113.248 C 57.209 113.736,57.554 114.664,57.886 115.312 C 58.217 115.960,58.624 117.020,58.789 117.668 C 58.955 118.316,59.458 119.747,59.907 120.848 C 60.356 121.949,60.961 123.645,61.251 124.617 C 61.542 125.589,61.892 126.596,62.030 126.855 C 62.169 127.114,62.693 128.492,63.197 129.918 C 65.881 137.519,66.686 139.746,67.368 141.461 C 67.781 142.497,68.218 143.750,68.339 144.244 C 68.461 144.738,68.705 145.374,68.881 145.657 C 69.058 145.940,69.271 146.490,69.356 146.879 C 69.441 147.267,69.657 147.903,69.837 148.292 C 70.018 148.681,70.398 149.741,70.682 150.648 C 71.535 153.366,72.074 153.399,73.032 150.792 C 74.014 148.123,75.217 144.975,75.518 144.287 C 75.688 143.899,76.328 142.150,76.941 140.400 C 77.553 138.651,78.146 137.099,78.258 136.950 C 78.440 136.709,79.431 133.975,79.783 132.744 C 79.857 132.485,80.396 131.054,80.980 129.564 C 81.564 128.074,82.290 126.113,82.593 125.206 C 83.483 122.542,84.102 120.763,84.313 120.259 C 84.478 119.868,85.275 117.865,87.008 113.486 C 87.821 111.434,87.893 113.722,87.817 139.245 C 87.760 158.580,87.702 161.824,87.406 162.180 C 87.217 162.408,86.952 162.788,86.817 163.025 C 86.683 163.262,86.175 164.038,85.689 164.748 C 85.203 165.458,84.806 166.200,84.806 166.395 C 84.806 166.591,84.660 166.896,84.483 167.074 C 84.305 167.251,83.986 167.733,83.773 168.144 C 83.561 168.555,83.112 169.292,82.777 169.781 C 82.442 170.271,82.072 170.883,81.956 171.143 C 81.839 171.402,81.614 171.796,81.455 172.019 C 80.809 172.924,81.250 172.959,93.609 172.994 C 107.051 173.031,106.705 173.075,105.848 171.459 C 105.611 171.013,105.012 169.859,104.515 168.893 C 104.017 167.928,103.362 166.714,103.057 166.196 C 102.752 165.677,102.099 164.511,101.605 163.604 L 100.707 161.955 100.707 129.329 L 100.707 96.702 101.846 94.817 C 102.473 93.781,103.223 92.562,103.513 92.108 C 104.455 90.634,105.604 88.719,106.294 87.470 C 107.270 85.703,107.501 85.748,97.433 85.748 C 88.219 85.748,87.868 85.795,87.868 87.033 C 87.868 87.172,87.644 87.705,87.369 88.217 C 87.095 88.729,86.715 89.682,86.526 90.334 C 86.084 91.858,84.662 95.575,84.211 96.385 C 84.020 96.729,83.863 97.153,83.862 97.327 C 83.861 97.502,83.690 97.962,83.481 98.351 C 83.125 99.013,81.913 102.178,80.459 106.243 C 80.111 107.214,79.678 108.327,79.495 108.716 C 79.036 109.695,77.792 113.116,77.226 114.959 C 76.967 115.801,76.564 116.821,76.330 117.227 C 76.096 117.632,75.831 118.294,75.743 118.699 C 75.422 120.159,74.854 119.679,74.036 117.255 C 73.741 116.379,73.292 115.213,73.038 114.663 C 72.508 113.515,71.679 111.292,70.647 108.248 C 70.253 107.084,69.846 106.024,69.744 105.893 C 69.642 105.761,69.229 104.700,68.826 103.534 C 67.528 99.776,66.510 96.966,66.010 95.760 C 65.742 95.112,65.159 93.628,64.716 92.462 C 64.273 91.296,63.518 89.318,63.040 88.066 C 61.987 85.310,63.368 85.608,52.297 85.748 M161.072 85.692 C 151.755 85.765,152.384 85.456,154.594 88.879 C 155.403 90.133,156.649 92.178,157.362 93.424 C 158.074 94.670,158.846 95.910,159.076 96.180 C 159.306 96.450,159.548 96.890,159.614 97.158 C 159.889 98.284,159.602 161.762,159.320 162.102 C 159.166 162.287,158.516 163.443,157.875 164.671 C 157.234 165.898,155.969 168.121,155.063 169.611 C 152.966 173.062,152.831 172.871,157.441 172.964 C 171.411 173.244,174.862 173.049,174.149 172.019 C 173.994 171.796,173.116 170.395,172.197 168.905 C 170.526 166.195,169.547 164.709,168.206 162.849 L 167.491 161.857 167.494 139.409 C 167.496 127.063,167.565 116.709,167.647 116.402 C 167.792 115.862,169.220 118.468,170.878 122.299 C 171.122 122.861,171.777 124.224,172.334 125.328 C 172.891 126.431,173.710 128.233,174.154 129.332 C 174.598 130.432,175.189 131.753,175.467 132.270 C 175.744 132.786,175.972 133.328,175.972 133.475 C 175.972 133.621,176.168 133.994,176.407 134.303 C 176.646 134.612,176.918 135.183,177.012 135.571 C 177.105 135.960,177.429 136.808,177.733 137.456 C 179.785 141.836,180.833 144.054,181.630 145.701 C 182.131 146.737,182.878 148.380,183.290 149.352 C 183.701 150.324,184.122 151.225,184.225 151.355 C 184.328 151.484,184.684 152.311,185.015 153.193 C 185.347 154.075,185.771 155.082,185.957 155.431 C 187.065 157.511,190.338 164.558,191.066 166.431 C 191.368 167.208,191.740 168.004,191.893 168.198 C 192.045 168.392,192.247 168.816,192.341 169.140 C 192.434 169.464,192.644 169.941,192.806 170.200 C 192.968 170.459,193.447 171.466,193.869 172.438 C 194.809 174.600,195.456 176.012,197.089 179.465 C 197.783 180.933,198.351 182.224,198.351 182.333 C 198.351 182.442,198.659 182.840,199.037 183.217 L 199.722 183.903 199.834 183.058 C 199.896 182.594,199.962 162.929,199.980 139.357 C 200.005 106.728,200.079 96.419,200.292 96.163 C 200.445 95.979,200.681 95.635,200.815 95.401 C 200.950 95.166,201.415 94.356,201.849 93.600 C 202.283 92.844,202.874 91.802,203.161 91.284 C 204.570 88.743,205.246 87.621,205.441 87.501 C 205.813 87.270,205.671 86.276,205.241 86.110 C 204.728 85.911,188.515 85.931,186.985 86.133 C 185.684 86.304,185.614 86.551,186.457 87.986 C 186.762 88.504,187.164 89.252,187.350 89.648 C 187.536 90.044,188.267 91.263,188.975 92.357 C 189.683 93.451,190.598 95.026,191.009 95.856 L 191.755 97.366 191.751 114.113 C 191.748 130.211,191.658 132.464,191.081 130.946 C 190.954 130.613,190.008 128.602,188.978 126.478 C 187.948 124.353,187.025 122.357,186.927 122.041 C 186.829 121.726,186.350 120.666,185.863 119.686 C 185.376 118.705,184.480 116.790,183.871 115.430 C 183.262 114.069,182.356 112.108,181.857 111.072 C 179.594 106.370,177.856 102.676,177.856 102.568 C 177.856 102.503,177.178 101.050,176.349 99.340 C 175.521 97.630,174.453 95.277,173.976 94.111 C 173.500 92.945,172.817 91.461,172.458 90.813 C 172.099 90.165,171.612 89.105,171.376 88.457 C 170.281 85.449,170.902 85.615,161.072 85.692 M217.817 85.784 C 214.848 86.352,210.642 89.158,209.396 91.402 C 209.144 91.855,208.728 92.544,208.471 92.933 C 207.916 93.773,206.596 96.484,206.596 96.785 C 206.596 96.901,206.393 97.459,206.146 98.027 C 203.972 103.001,203.664 114.032,205.556 119.081 C 205.896 119.988,206.375 121.313,206.620 122.026 C 207.050 123.277,207.277 123.743,208.568 126.031 C 208.897 126.614,209.302 127.356,209.468 127.680 C 209.633 128.004,209.953 128.405,210.178 128.572 C 210.403 128.738,211.094 129.545,211.713 130.364 C 212.332 131.183,213.634 132.569,214.605 133.443 C 220.241 138.513,224.264 142.396,224.264 142.766 C 224.264 142.890,224.396 142.993,224.558 142.995 C 224.904 142.999,226.220 144.601,227.652 146.761 C 229.122 148.979,229.688 155.914,228.525 157.479 C 228.429 157.609,228.155 158.245,227.917 158.893 C 225.507 165.457,218.844 166.300,215.820 160.424 C 215.386 159.582,214.795 158.469,214.507 157.951 C 214.218 157.432,213.157 155.524,212.149 153.710 C 209.176 148.361,209.722 147.888,206.164 158.893 C 202.483 170.280,202.582 169.606,204.528 170.082 C 205.530 170.328,212.295 172.100,214.723 172.753 C 221.051 174.456,229.946 172.866,233.284 169.436 C 235.524 167.134,236.504 166.007,236.641 165.576 C 236.732 165.290,237.150 164.517,237.569 163.859 C 237.988 163.200,238.388 162.344,238.456 161.955 C 238.525 161.567,238.911 160.348,239.314 159.248 C 239.717 158.148,240.047 156.975,240.047 156.641 C 240.047 156.307,240.199 155.511,240.385 154.872 C 241.921 149.597,240.957 136.287,238.844 133.601 C 238.599 133.289,238.398 132.894,238.398 132.723 C 238.398 132.412,237.642 131.144,236.796 130.035 C 236.548 129.711,236.182 129.127,235.981 128.736 C 235.781 128.346,234.997 127.452,234.239 126.751 C 230.879 123.638,225.982 119.026,225.409 118.433 C 225.064 118.077,224.665 117.786,224.523 117.786 C 224.380 117.786,224.264 117.700,224.264 117.595 C 224.264 117.491,223.015 116.139,221.489 114.592 C 217.290 110.335,216.102 107.802,216.315 103.562 C 216.534 99.226,217.839 96.675,220.448 95.482 C 223.602 94.039,225.898 95.527,228.508 100.707 C 229.351 102.381,229.377 102.424,231.290 105.344 C 232.669 107.450,233.451 108.268,233.451 107.605 C 233.451 107.456,233.646 106.903,233.884 106.376 C 234.502 105.008,235.336 102.852,235.336 102.622 C 235.336 102.515,235.817 101.191,236.405 99.682 C 237.838 96.007,238.558 94.005,239.374 91.428 C 240.011 89.418,239.868 89.289,235.925 88.321 C 234.240 87.907,231.908 87.311,230.742 86.996 C 225.225 85.506,221.231 85.131,217.817 85.784 M263.674 86.008 C 263.378 86.304,264.391 88.387,266.071 90.931 C 266.627 91.773,267.227 92.749,267.405 93.100 C 267.582 93.451,268.178 94.478,268.730 95.383 L 269.734 97.028 269.673 129.392 L 269.611 161.756 268.997 162.563 C 268.659 163.006,268.087 163.952,267.727 164.664 C 267.366 165.377,266.571 166.702,265.960 167.609 C 264.250 170.145,263.259 172.224,263.643 172.467 C 264.195 172.817,302.844 172.725,303.136 172.373 C 303.535 171.893,303.580 149.117,303.182 149.117 C 303.054 149.117,302.624 149.691,302.228 150.393 C 301.832 151.095,301.354 151.797,301.166 151.953 C 300.978 152.109,300.824 152.430,300.824 152.665 C 300.824 152.901,300.735 153.149,300.626 153.216 C 300.516 153.284,299.839 154.483,299.120 155.880 C 298.401 157.278,297.390 159.164,296.873 160.071 L 295.932 161.720 289.521 161.714 C 283.479 161.708,283.091 161.682,282.780 161.257 C 282.364 160.688,282.282 132.909,282.694 132.140 C 283.005 131.559,290.716 131.447,291.460 132.012 C 291.870 132.323,293.051 133.941,293.051 134.192 C 293.051 134.264,293.634 135.313,294.346 136.524 C 295.059 137.735,295.642 138.786,295.642 138.859 C 295.642 139.316,297.651 141.994,297.808 141.747 C 298.024 141.407,298.060 113.508,297.846 111.731 L 297.699 110.506 297.154 111.260 C 296.580 112.054,295.221 114.265,294.229 116.019 C 292.264 119.491,291.792 120.184,291.250 120.390 C 290.453 120.693,283.478 120.675,282.906 120.369 C 282.330 120.061,282.189 98.410,282.755 97.291 L 283.053 96.702 288.228 96.653 C 295.524 96.584,295.632 96.600,296.548 97.899 C 296.956 98.479,297.291 99.104,297.291 99.288 C 297.291 99.473,297.426 99.708,297.590 99.812 C 297.871 99.988,298.629 101.362,300.197 104.537 C 300.564 105.281,301.051 106.101,301.278 106.360 C 301.505 106.620,301.817 107.150,301.972 107.538 C 302.447 108.728,303.138 109.482,303.393 109.089 C 303.646 108.700,303.575 86.431,303.320 86.019 C 303.086 85.640,264.053 85.629,263.674 86.008 M307.037 86.096 C 306.963 86.287,307.227 86.950,307.622 87.568 C 308.017 88.187,308.656 89.276,309.041 89.988 C 310.330 92.376,311.066 93.689,311.896 95.082 C 312.350 95.843,312.800 96.730,312.896 97.055 C 312.992 97.379,313.072 112.083,313.073 129.730 L 313.075 161.816 312.399 162.946 C 312.027 163.567,311.286 164.764,310.751 165.607 C 310.217 166.449,309.396 167.874,308.927 168.774 C 308.458 169.674,307.821 170.812,307.512 171.302 C 306.353 173.138,306.851 173.197,321.905 173.015 C 333.103 172.879,333.207 172.849,331.083 170.318 C 330.920 170.124,330.453 169.329,330.046 168.551 C 329.638 167.774,329.098 166.820,328.845 166.431 C 328.593 166.042,328.254 165.458,328.092 165.133 C 327.930 164.807,327.409 163.906,326.933 163.130 L 326.069 161.720 326.007 148.722 C 325.939 134.670,325.912 134.982,327.192 134.982 C 328.158 134.982,328.458 135.391,329.178 137.691 C 329.542 138.857,329.945 140.130,330.073 140.518 C 330.381 141.457,330.987 143.442,332.016 146.879 C 332.481 148.433,333.223 150.819,333.666 152.179 C 334.108 153.539,334.539 154.971,334.623 155.359 C 334.707 155.748,335.182 157.232,335.679 158.657 C 336.176 160.082,336.811 162.044,337.090 163.015 C 337.982 166.124,338.072 166.422,338.266 166.902 C 338.371 167.161,338.693 168.168,338.981 169.140 C 339.270 170.112,339.677 171.344,339.885 171.878 L 340.264 172.849 341.804 172.948 C 343.125 173.033,353.295 173.026,357.067 172.938 C 357.828 172.920,358.304 172.805,358.304 172.638 C 358.304 172.110,356.809 169.316,355.046 166.549 C 354.509 165.707,353.874 164.647,353.634 164.193 C 353.393 163.740,352.759 162.548,352.224 161.545 C 351.689 160.542,351.092 159.110,350.899 158.363 C 350.705 157.615,349.892 155.149,349.092 152.883 C 346.512 145.576,345.331 142.191,344.982 141.107 C 344.795 140.524,344.553 139.835,344.444 139.576 C 344.230 139.066,343.654 137.401,342.393 133.649 C 341.569 131.201,341.568 129.800,342.389 129.800 C 342.551 129.800,343.309 129.126,344.074 128.303 C 347.251 124.886,348.382 123.088,349.913 119.024 C 351.544 114.693,351.155 103.169,349.253 99.529 C 349.050 99.140,348.883 98.706,348.882 98.564 C 348.877 97.666,346.475 94.004,344.606 92.047 C 341.588 88.885,336.980 86.616,332.315 85.994 C 329.193 85.577,307.201 85.666,307.037 86.096 M132.446 94.857 C 133.168 95.077,135.925 97.455,135.925 97.858 C 135.925 98.000,136.296 98.639,136.749 99.277 C 137.203 99.914,137.574 100.654,137.574 100.920 C 137.574 101.187,137.774 101.936,138.019 102.587 C 140.050 107.978,140.914 117.513,140.731 132.536 C 140.660 138.384,140.124 147.616,139.808 148.459 C 139.745 148.626,139.540 149.717,139.352 150.883 C 138.882 153.807,137.617 158.157,136.983 159.035 C 136.852 159.216,136.537 159.774,136.283 160.276 C 134.756 163.284,131.350 164.852,128.224 163.985 C 127.234 163.711,124.853 162.025,124.853 161.598 C 124.853 161.473,124.491 160.897,124.049 160.317 C 123.607 159.738,123.171 158.916,123.080 158.490 C 122.990 158.064,122.781 157.556,122.617 157.362 C 122.333 157.027,122.037 155.968,121.226 152.399 C 120.125 147.550,119.627 140.357,119.605 128.975 C 119.582 117.587,119.808 114.491,121.312 105.536 C 121.513 104.340,122.785 100.666,123.446 99.374 C 124.527 97.260,125.648 96.115,127.915 94.803 C 128.817 94.281,130.625 94.302,132.446 94.857 M331.095 97.261 C 338.692 101.979,338.732 118.245,331.159 123.110 C 330.042 123.828,326.427 123.962,326.171 123.296 C 325.885 122.549,325.996 97.499,326.287 97.148 C 326.724 96.622,330.198 96.703,331.095 97.261 M128.982 113.472 C 128.776 113.836,128.399 114.452,128.143 114.841 C 127.888 115.230,127.515 115.900,127.315 116.330 C 127.116 116.761,126.593 117.624,126.154 118.248 C 125.716 118.872,125.032 120.004,124.634 120.763 C 123.652 122.642,121.286 126.670,120.504 127.797 C 120.108 128.368,121.974 132.356,123.821 134.887 C 124.096 135.263,124.592 136.108,124.922 136.764 C 125.252 137.420,125.690 138.095,125.894 138.265 C 126.099 138.435,126.270 138.693,126.274 138.839 C 126.292 139.488,129.289 144.052,129.697 144.052 C 130.067 144.052,131.043 142.787,131.606 141.578 C 131.696 141.384,131.944 140.960,132.156 140.636 C 134.630 136.864,135.231 135.891,135.655 134.982 C 135.927 134.399,136.338 133.604,136.569 133.216 C 138.841 129.387,139.262 128.364,138.832 127.717 C 138.603 127.372,138.242 126.773,138.030 126.384 C 137.469 125.356,135.307 121.646,134.393 120.141 C 133.260 118.279,132.154 116.364,131.739 115.548 C 131.541 115.159,131.219 114.655,131.023 114.427 C 130.827 114.199,130.548 113.776,130.404 113.487 C 130.016 112.710,129.415 112.704,128.982 113.472 M21.531 116.788 C 21.209 117.003,20.119 118.696,19.295 120.259 C 17.460 123.743,16.687 125.168,15.589 127.091 C 14.180 129.558,14.126 130.019,15.077 131.449 C 15.464 132.032,15.782 132.608,15.782 132.729 C 15.783 132.850,15.976 133.168,16.211 133.436 C 16.446 133.703,16.837 134.399,17.080 134.982 C 17.322 135.565,17.648 136.201,17.803 136.396 C 17.958 136.590,18.417 137.377,18.823 138.144 C 19.898 140.177,21.518 142.756,21.721 142.756 C 22.071 142.756,25.351 141.001,26.392 140.257 C 26.980 139.836,27.757 139.418,28.119 139.327 C 28.481 139.236,28.829 139.028,28.892 138.864 C 28.955 138.700,29.632 138.286,30.396 137.943 C 31.161 137.599,31.844 137.225,31.914 137.111 C 31.985 136.997,33.022 136.405,34.219 135.795 C 35.416 135.184,36.814 134.381,37.326 134.009 C 37.837 133.637,38.333 133.333,38.428 133.333 C 38.523 133.333,39.217 132.927,39.972 132.430 C 40.726 131.934,41.859 131.272,42.491 130.961 C 43.721 130.353,44.024 129.946,43.667 129.380 C 43.413 128.978,39.015 126.199,36.867 125.083 C 36.090 124.680,35.069 124.118,34.600 123.835 C 34.130 123.553,32.664 122.686,31.342 121.908 C 30.020 121.131,28.549 120.260,28.073 119.973 C 27.598 119.686,26.837 119.278,26.384 119.066 C 25.931 118.854,25.400 118.543,25.206 118.374 C 24.877 118.087,22.076 116.603,21.879 116.611 C 21.830 116.613,21.674 116.693,21.531 116.788 M372.320 117.388 C 371.543 117.809,370.006 118.747,368.905 119.473 C 367.803 120.200,366.160 121.181,365.253 121.654 C 364.346 122.127,363.398 122.643,363.147 122.800 C 361.877 123.594,360.242 124.551,359.717 124.806 C 359.393 124.964,358.810 125.301,358.422 125.555 C 357.781 125.974,357.285 126.261,355.477 127.255 C 354.138 127.991,352.179 129.358,352.179 129.555 C 352.179 129.832,352.858 130.506,353.138 130.506 C 353.258 130.506,353.860 130.864,354.475 131.302 C 355.091 131.739,355.913 132.271,356.302 132.483 C 357.003 132.865,357.184 132.972,358.775 133.942 C 361.135 135.381,363.998 137.040,365.253 137.698 C 367.266 138.751,367.782 139.054,368.316 139.492 C 368.575 139.705,369.838 140.430,371.122 141.104 C 372.407 141.778,373.644 142.445,373.871 142.587 C 374.474 142.964,374.914 142.503,375.979 140.386 C 376.479 139.391,377.199 138.113,377.579 137.546 C 378.583 136.045,381.625 130.024,381.625 129.537 C 381.625 129.113,379.351 124.750,376.912 120.495 C 376.615 119.976,376.024 118.916,375.599 118.139 C 374.658 116.417,374.278 116.330,372.320 117.388 " stroke="none" fill="#000000" fill-rule="evenodd"></path></g></svg>